<svg viewBox="-16 -32 880 192" width="880" height="192" xmlns="http://www.w3.org/2000/svg"><style>@keyframes c0{95.19%{fill:var(--c4)}95.21%,to{fill:var(--ce)}}@keyframes c1{1.47%{fill:var(--c1)}1.49%,to{fill:var(--ce)}}@keyframes c2{93.35%{fill:var(--c4)}93.37%,to{fill:var(--ce)}}@keyframes c3{2.94%{fill:var(--c1)}2.96%,to{fill:var(--ce)}}@keyframes c4{54.97%{fill:var(--c2)}54.99%,to{fill:var(--ce)}}@keyframes c5{54.6%{fill:var(--c2)}54.62%,to{fill:var(--ce)}}@keyframes c6{56.08%{fill:var(--c2)}56.1%,to{fill:var(--ce)}}@keyframes c7{54.23%{fill:var(--c2)}54.25%,to{fill:var(--ce)}}@keyframes c8{6.26%{fill:var(--c1)}6.28%,to{fill:var(--ce)}}@keyframes c9{17.7%{fill:var(--c1)}17.72%,to{fill:var(--ce)}}@keyframes ca{47.59%{fill:var(--c2)}47.61%,to{fill:var(--ce)}}@keyframes cb{5.16%{fill:var(--c1)}5.18%,to{fill:var(--ce)}}@keyframes cc{48.33%{fill:var(--c2)}48.35%,to{fill:var(--ce)}}@keyframes cd{46.48%{fill:var(--c2)}46.5%,to{fill:var(--ce)}}@keyframes ce{11.8%{fill:var(--c1)}11.82%,to{fill:var(--ce)}}@keyframes cf{9.95%{fill:var(--c1)}9.97%,to{fill:var(--ce)}}@keyframes cg{50.91%{fill:var(--c2)}50.93%,to{fill:var(--ce)}}@keyframes ch{8.48%{fill:var(--c1)}8.5%,to{fill:var(--ce)}}@keyframes ci{11.43%{fill:var(--c1)}11.45%,to{fill:var(--ce)}}@keyframes cj{11.06%{fill:var(--c1)}11.08%,to{fill:var(--ce)}}@keyframes ck{9.22%{fill:var(--c1)}9.24%,to{fill:var(--ce)}}@keyframes cl{14.01%{fill:var(--c1)}14.03%,to{fill:var(--ce)}}@keyframes cm{43.9%{fill:var(--c2)}43.92%,to{fill:var(--ce)}}@keyframes cn{64.57%{fill:var(--c3)}64.59%,to{fill:var(--ce)}}@keyframes co{40.95%{fill:var(--c2)}40.97%,to{fill:var(--ce)}}@keyframes cp{26.56%{fill:var(--c1)}26.58%,to{fill:var(--ce)}}@keyframes cq{32.46%{fill:var(--c1)}32.48%,to{fill:var(--ce)}}@keyframes cr{33.94%{fill:var(--c1)}33.96%,to{fill:var(--ce)}}@keyframes cs{75.27%{fill:var(--c3)}75.29%,to{fill:var(--ce)}}@keyframes u0{1.47%{transform:scale(0,1)}1.49%,2.94%{transform:scale(.07,1)}2.96%,5.16%{transform:scale(.13,1)}5.18%,6.26%{transform:scale(.2,1)}6.28%,8.48%{transform:scale(.27,1)}8.5%,9.22%{transform:scale(.33,1)}9.24%,9.95%{transform:scale(.4,1)}11.06%,9.97%{transform:scale(.47,1)}11.08%,11.43%{transform:scale(.53,1)}11.45%,11.8%{transform:scale(.6,1)}11.82%,14.01%{transform:scale(.67,1)}14.03%,17.7%{transform:scale(.73,1)}17.72%,26.56%{transform:scale(.8,1)}26.58%,32.46%{transform:scale(.87,1)}32.48%,33.94%{transform:scale(.93,1)}33.96%,to{transform:scale(1,1)}}@keyframes u1{40.95%{transform:scale(0,1)}40.97%,43.9%{transform:scale(.1,1)}43.92%,46.48%{transform:scale(.2,1)}46.5%,47.59%{transform:scale(.3,1)}47.61%,48.33%{transform:scale(.4,1)}48.35%,50.91%{transform:scale(.5,1)}50.93%,54.23%{transform:scale(.6,1)}54.25%,54.6%{transform:scale(.7,1)}54.62%,54.97%{transform:scale(.8,1)}54.99%,56.08%{transform:scale(.9,1)}56.1%,to{transform:scale(1,1)}}@keyframes u2{64.57%{transform:scale(0,1)}64.59%,75.27%{transform:scale(.5,1)}75.29%,to{transform:scale(1,1)}}@keyframes u3{93.35%{transform:scale(0,1)}93.37%,95.19%{transform:scale(.5,1)}95.21%,to{transform:scale(1,1)}}@keyframes s0{0%,99.63%{transform:translate(0,-16px)}.37%{transform:translate(0,0)}1.11%{transform:translate(32px,0)}1.48%,97.42%{transform:translate(32px,16px)}1.85%{transform:translate(16px,16px)}2.58%,96.31%{transform:translate(16px,48px)}4.8%{transform:translate(112px,48px)}5.17%{transform:translate(112px,64px)}5.54%{transform:translate(96px,64px)}6.27%{transform:translate(96px,96px)}8.86%{transform:translate(208px,96px)}9.59%{transform:translate(208px,64px)}9.96%{transform:translate(192px,64px)}10.33%{transform:translate(192px,48px)}10.7%{transform:translate(208px,48px)}11.44%{transform:translate(208px,16px)}11.81%{transform:translate(192px,16px)}12.18%{transform:translate(192px,0)}13.65%{transform:translate(256px,0)}14.02%,44.28%{transform:translate(256px,16px)}14.39%{transform:translate(240px,16px)}14.76%{transform:translate(240px,0)}17.71%{transform:translate(112px,0)}18.08%{transform:translate(112px,-16px)}24.72%{transform:translate(400px,-16px)}26.57%{transform:translate(400px,64px)}32.84%{transform:translate(672px,64px)}33.95%{transform:translate(672px,16px)}40.59%{transform:translate(384px,16px)}40.96%{transform:translate(384px,32px)}43.91%{transform:translate(256px,32px)}47.6%{transform:translate(112px,16px)}47.97%{transform:translate(112px,32px)}49.82%{transform:translate(192px,32px)}50.92%{transform:translate(192px,80px)}54.61%{transform:translate(32px,80px)}54.98%{transform:translate(32px,64px)}55.35%{transform:translate(48px,64px)}56.09%{transform:translate(48px,32px)}63.47%{transform:translate(368px,32px)}64.58%{transform:translate(368px,80px)}74.54%{transform:translate(800px,80px)}75.65%{transform:translate(800px,32px)}94.1%{transform:translate(0,32px)}95.2%{transform:translate(0,80px)}95.57%{transform:translate(16px,80px)}96.68%{transform:translate(32px,48px)}97.79%{transform:translate(48px,16px)}98.52%{transform:translate(48px,-16px)}}@keyframes s1{0%,99.63%{transform:translate(16px,-16px)}.37%{transform:translate(0,-16px)}.74%{transform:translate(0,0)}1.48%{transform:translate(32px,0)}1.85%,97.79%{transform:translate(32px,16px)}2.21%{transform:translate(16px,16px)}2.95%,96.68%{transform:translate(16px,48px)}5.17%{transform:translate(112px,48px)}5.54%{transform:translate(112px,64px)}5.9%{transform:translate(96px,64px)}6.64%{transform:translate(96px,96px)}9.23%{transform:translate(208px,96px)}9.96%{transform:translate(208px,64px)}10.33%{transform:translate(192px,64px)}10.7%{transform:translate(192px,48px)}11.07%{transform:translate(208px,48px)}11.81%{transform:translate(208px,16px)}12.18%{transform:translate(192px,16px)}12.55%{transform:translate(192px,0)}14.02%{transform:translate(256px,0)}14.39%,44.65%{transform:translate(256px,16px)}14.76%{transform:translate(240px,16px)}15.13%{transform:translate(240px,0)}18.08%{transform:translate(112px,0)}18.45%{transform:translate(112px,-16px)}25.09%{transform:translate(400px,-16px)}26.94%{transform:translate(400px,64px)}33.21%{transform:translate(672px,64px)}34.32%{transform:translate(672px,16px)}40.96%{transform:translate(384px,16px)}41.33%{transform:translate(384px,32px)}44.28%{transform:translate(256px,32px)}47.97%{transform:translate(112px,16px)}48.34%{transform:translate(112px,32px)}50.18%{transform:translate(192px,32px)}51.29%{transform:translate(192px,80px)}54.98%{transform:translate(32px,80px)}55.35%{transform:translate(32px,64px)}55.72%{transform:translate(48px,64px)}56.46%{transform:translate(48px,32px)}63.84%{transform:translate(368px,32px)}64.94%{transform:translate(368px,80px)}74.91%{transform:translate(800px,80px)}76.01%{transform:translate(800px,32px)}94.46%{transform:translate(0,32px)}95.57%{transform:translate(0,80px)}95.94%{transform:translate(16px,80px)}97.05%{transform:translate(32px,48px)}98.15%{transform:translate(48px,16px)}98.89%{transform:translate(48px,-16px)}}@keyframes s2{0%,99.63%{transform:translate(32px,-16px)}.74%{transform:translate(0,-16px)}1.11%{transform:translate(0,0)}1.85%{transform:translate(32px,0)}2.21%,98.15%{transform:translate(32px,16px)}2.58%{transform:translate(16px,16px)}3.32%,97.05%{transform:translate(16px,48px)}5.54%{transform:translate(112px,48px)}5.9%{transform:translate(112px,64px)}6.27%{transform:translate(96px,64px)}7.01%{transform:translate(96px,96px)}9.59%{transform:translate(208px,96px)}10.33%{transform:translate(208px,64px)}10.7%{transform:translate(192px,64px)}11.07%{transform:translate(192px,48px)}11.44%{transform:translate(208px,48px)}12.18%{transform:translate(208px,16px)}12.55%{transform:translate(192px,16px)}12.92%{transform:translate(192px,0)}14.39%{transform:translate(256px,0)}14.76%,45.02%{transform:translate(256px,16px)}15.13%{transform:translate(240px,16px)}15.5%{transform:translate(240px,0)}18.45%{transform:translate(112px,0)}18.82%{transform:translate(112px,-16px)}25.46%{transform:translate(400px,-16px)}27.31%{transform:translate(400px,64px)}33.58%{transform:translate(672px,64px)}34.69%{transform:translate(672px,16px)}41.33%{transform:translate(384px,16px)}41.7%{transform:translate(384px,32px)}44.65%{transform:translate(256px,32px)}48.34%{transform:translate(112px,16px)}48.71%{transform:translate(112px,32px)}50.55%{transform:translate(192px,32px)}51.66%{transform:translate(192px,80px)}55.35%{transform:translate(32px,80px)}55.72%{transform:translate(32px,64px)}56.09%{transform:translate(48px,64px)}56.83%{transform:translate(48px,32px)}64.21%{transform:translate(368px,32px)}65.31%{transform:translate(368px,80px)}75.28%{transform:translate(800px,80px)}76.38%{transform:translate(800px,32px)}94.83%{transform:translate(0,32px)}95.94%{transform:translate(0,80px)}96.31%{transform:translate(16px,80px)}97.42%{transform:translate(32px,48px)}98.52%{transform:translate(48px,16px)}99.26%{transform:translate(48px,-16px)}}@keyframes s3{0%,99.63%{transform:translate(48px,-16px)}1.11%{transform:translate(0,-16px)}1.48%{transform:translate(0,0)}2.21%{transform:translate(32px,0)}2.58%,98.52%{transform:translate(32px,16px)}2.95%{transform:translate(16px,16px)}3.69%,97.42%{transform:translate(16px,48px)}5.9%{transform:translate(112px,48px)}6.27%{transform:translate(112px,64px)}6.64%{transform:translate(96px,64px)}7.38%{transform:translate(96px,96px)}9.96%{transform:translate(208px,96px)}10.7%{transform:translate(208px,64px)}11.07%{transform:translate(192px,64px)}11.44%{transform:translate(192px,48px)}11.81%{transform:translate(208px,48px)}12.55%{transform:translate(208px,16px)}12.92%{transform:translate(192px,16px)}13.28%{transform:translate(192px,0)}14.76%{transform:translate(256px,0)}15.13%,45.39%{transform:translate(256px,16px)}15.5%{transform:translate(240px,16px)}15.87%{transform:translate(240px,0)}18.82%{transform:translate(112px,0)}19.19%{transform:translate(112px,-16px)}25.83%{transform:translate(400px,-16px)}27.68%{transform:translate(400px,64px)}33.95%{transform:translate(672px,64px)}35.06%{transform:translate(672px,16px)}41.7%{transform:translate(384px,16px)}42.07%{transform:translate(384px,32px)}45.02%{transform:translate(256px,32px)}48.71%{transform:translate(112px,16px)}49.08%{transform:translate(112px,32px)}50.92%{transform:translate(192px,32px)}52.03%{transform:translate(192px,80px)}55.72%{transform:translate(32px,80px)}56.09%{transform:translate(32px,64px)}56.46%{transform:translate(48px,64px)}57.2%{transform:translate(48px,32px)}64.58%{transform:translate(368px,32px)}65.68%{transform:translate(368px,80px)}75.65%{transform:translate(800px,80px)}76.75%{transform:translate(800px,32px)}95.2%{transform:translate(0,32px)}96.31%{transform:translate(0,80px)}96.68%{transform:translate(16px,80px)}97.79%{transform:translate(32px,48px)}98.89%{transform:translate(48px,16px)}}:root{--cb:#1b1f230a;--cs:purple;--ce:#ebedf0;--c0:#ebedf0;--c1:#9be9a8;--c2:#40c463;--c3:#30a14e;--c4:#216e39}.c{shape-rendering:geometricPrecision;rx:2;ry:2;fill:var(--ce);stroke-width:1px;stroke:var(--cb);animation:none 27100ms linear infinite}.c.c0{fill:var(--c4);animation-name:c0}.c.c1{fill:var(--c1);animation-name:c1}.c.c2{fill:var(--c4);animation-name:c2}.c.c3{fill:var(--c1);animation-name:c3}.c.c4{fill:var(--c2);animation-name:c4}.c.c5,.c.c6,.c.c7{fill:var(--c2);animation-name:c5}.c.c6,.c.c7{animation-name:c6}.c.c7{animation-name:c7}.c.c8,.c.c9{fill:var(--c1);animation-name:c8}.c.c9{animation-name:c9}.c.ca{fill:var(--c2);animation-name:ca}.c.cb{fill:var(--c1);animation-name:cb}.c.cc,.c.cd{fill:var(--c2);animation-name:cc}.c.cd{animation-name:cd}.c.ce,.c.cf{fill:var(--c1);animation-name:ce}.c.cf{animation-name:cf}.c.cg{fill:var(--c2);animation-name:cg}.c.ch,.c.ci{fill:var(--c1);animation-name:ch}.c.ci{animation-name:ci}.c.cj,.c.ck,.c.cl{fill:var(--c1);animation-name:cj}.c.ck,.c.cl{animation-name:ck}.c.cl{animation-name:cl}.c.cm{fill:var(--c2);animation-name:cm}.c.cn{fill:var(--c3);animation-name:cn}.c.co{fill:var(--c2);animation-name:co}.c.cp,.c.cq,.c.cr{fill:var(--c1);animation-name:cp}.c.cq,.c.cr{animation-name:cq}.c.cr{animation-name:cr}.c.cs{fill:var(--c3);animation-name:cs}.s,.u{animation:none linear 27100ms infinite}.u,.u.u0{transform-origin:0 0}.u{transform:scale(0,1)}.u.u0{fill:var(--c1);animation-name:u0}.u.u1{fill:var(--c2);animation-name:u1;transform-origin:438.6px 0}.u.u2{fill:var(--c3);animation-name:u2;transform-origin:731px 0}.u.u3{fill:var(--c4);animation-name:u3;transform-origin:789.5px 0}.s{shape-rendering:geometricPrecision;fill:var(--cs)}.s.s0{transform:translate(0,-16px);animation-name:s0}.s.s1{transform:translate(16px,-16px);animation-name:s1}.s.s2{transform:translate(32px,-16px);animation-name:s2}.s.s3{transform:translate(48px,-16px);animation-name:s3}</style><rect class="c" x="2" y="2" width="12" height="12"/><rect class="c" x="2" y="18" width="12" height="12"/><rect class="c" x="2" y="34" width="12" height="12"/><rect class="c" x="2" y="50" width="12" height="12"/><rect class="c" x="2" y="66" width="12" height="12"/><rect class="c c0" x="2" y="82" width="12" height="12"/><rect class="c" x="2" y="98" width="12" height="12"/><rect class="c" x="18" y="2" width="12" height="12"/><rect class="c" x="18" y="18" width="12" height="12"/><rect class="c" x="18" y="34" width="12" height="12"/><rect class="c" x="18" y="50" width="12" height="12"/><rect class="c" x="18" y="66" width="12" height="12"/><rect class="c" x="18" y="82" width="12" height="12"/><rect class="c" x="18" y="98" width="12" height="12"/><rect class="c" x="34" y="2" width="12" height="12"/><rect class="c c1" x="34" y="18" width="12" height="12"/><rect class="c c2" x="34" y="34" width="12" height="12"/><rect class="c c3" x="34" y="50" width="12" height="12"/><rect class="c c4" x="34" y="66" width="12" height="12"/><rect class="c c5" x="34" y="82" width="12" height="12"/><rect class="c" x="34" y="98" width="12" height="12"/><rect class="c" x="50" y="2" width="12" height="12"/><rect class="c" x="50" y="18" width="12" height="12"/><rect class="c c6" x="50" y="34" width="12" height="12"/><rect class="c" x="50" y="50" width="12" height="12"/><rect class="c" x="50" y="66" width="12" height="12"/><rect class="c c7" x="50" y="82" width="12" height="12"/><rect class="c" x="50" y="98" width="12" height="12"/><rect class="c" x="66" y="2" width="12" height="12"/><rect class="c" x="66" y="18" width="12" height="12"/><rect class="c" x="66" y="34" width="12" height="12"/><rect class="c" x="66" y="50" width="12" height="12"/><rect class="c" x="66" y="66" width="12" height="12"/><rect class="c" x="66" y="82" width="12" height="12"/><rect class="c" x="66" y="98" width="12" height="12"/><rect class="c" x="82" y="2" width="12" height="12"/><rect class="c" x="82" y="18" width="12" height="12"/><rect class="c" x="82" y="34" width="12" height="12"/><rect class="c" x="82" y="50" width="12" height="12"/><rect class="c" x="82" y="66" width="12" height="12"/><rect class="c" x="82" y="82" width="12" height="12"/><rect class="c" x="82" y="98" width="12" height="12"/><rect class="c" x="98" y="2" width="12" height="12"/><rect class="c" x="98" y="18" width="12" height="12"/><rect class="c" x="98" y="34" width="12" height="12"/><rect class="c" x="98" y="50" width="12" height="12"/><rect class="c" x="98" y="66" width="12" height="12"/><rect class="c" x="98" y="82" width="12" height="12"/><rect class="c c8" x="98" y="98" width="12" height="12"/><rect class="c c9" x="114" y="2" width="12" height="12"/><rect class="c ca" x="114" y="18" width="12" height="12"/><rect class="c" x="114" y="34" width="12" height="12"/><rect class="c" x="114" y="50" width="12" height="12"/><rect class="c cb" x="114" y="66" width="12" height="12"/><rect class="c" x="114" y="82" width="12" height="12"/><rect class="c" x="114" y="98" width="12" height="12"/><rect class="c" x="130" y="2" width="12" height="12"/><rect class="c" x="130" y="18" width="12" height="12"/><rect class="c cc" x="130" y="34" width="12" height="12"/><rect class="c" x="130" y="50" width="12" height="12"/><rect class="c" x="130" y="66" width="12" height="12"/><rect class="c" x="130" y="82" width="12" height="12"/><rect class="c" x="130" y="98" width="12" height="12"/><rect class="c" x="146" y="2" width="12" height="12"/><rect class="c" x="146" y="18" width="12" height="12"/><rect class="c" x="146" y="34" width="12" height="12"/><rect class="c" x="146" y="50" width="12" height="12"/><rect class="c" x="146" y="66" width="12" height="12"/><rect class="c" x="146" y="82" width="12" height="12"/><rect class="c" x="146" y="98" width="12" height="12"/><rect class="c" x="162" y="2" width="12" height="12"/><rect class="c cd" x="162" y="18" width="12" height="12"/><rect class="c" x="162" y="34" width="12" height="12"/><rect class="c" x="162" y="50" width="12" height="12"/><rect class="c" x="162" y="66" width="12" height="12"/><rect class="c" x="162" y="82" width="12" height="12"/><rect class="c" x="162" y="98" width="12" height="12"/><rect class="c" x="178" y="2" width="12" height="12"/><rect class="c" x="178" y="18" width="12" height="12"/><rect class="c" x="178" y="34" width="12" height="12"/><rect class="c" x="178" y="50" width="12" height="12"/><rect class="c" x="178" y="66" width="12" height="12"/><rect class="c" x="178" y="82" width="12" height="12"/><rect class="c" x="178" y="98" width="12" height="12"/><rect class="c" x="194" y="2" width="12" height="12"/><rect class="c ce" x="194" y="18" width="12" height="12"/><rect class="c" x="194" y="34" width="12" height="12"/><rect class="c" x="194" y="50" width="12" height="12"/><rect class="c cf" x="194" y="66" width="12" height="12"/><rect class="c cg" x="194" y="82" width="12" height="12"/><rect class="c ch" x="194" y="98" width="12" height="12"/><rect class="c" x="210" y="2" width="12" height="12"/><rect class="c ci" x="210" y="18" width="12" height="12"/><rect class="c cj" x="210" y="34" width="12" height="12"/><rect class="c" x="210" y="50" width="12" height="12"/><rect class="c" x="210" y="66" width="12" height="12"/><rect class="c ck" x="210" y="82" width="12" height="12"/><rect class="c" x="210" y="98" width="12" height="12"/><rect class="c" x="226" y="2" width="12" height="12"/><rect class="c" x="226" y="18" width="12" height="12"/><rect class="c" x="226" y="34" width="12" height="12"/><rect class="c" x="226" y="50" width="12" height="12"/><rect class="c" x="226" y="66" width="12" height="12"/><rect class="c" x="226" y="82" width="12" height="12"/><rect class="c" x="226" y="98" width="12" height="12"/><rect class="c" x="242" y="2" width="12" height="12"/><rect class="c" x="242" y="18" width="12" height="12"/><rect class="c" x="242" y="34" width="12" height="12"/><rect class="c" x="242" y="50" width="12" height="12"/><rect class="c" x="242" y="66" width="12" height="12"/><rect class="c" x="242" y="82" width="12" height="12"/><rect class="c" x="242" y="98" width="12" height="12"/><rect class="c" x="258" y="2" width="12" height="12"/><rect class="c cl" x="258" y="18" width="12" height="12"/><rect class="c cm" x="258" y="34" width="12" height="12"/><rect class="c" x="258" y="50" width="12" height="12"/><rect class="c" x="258" y="66" width="12" height="12"/><rect class="c" x="258" y="82" width="12" height="12"/><rect class="c" x="258" y="98" width="12" height="12"/><rect class="c" x="274" y="2" width="12" height="12"/><rect class="c" x="274" y="18" width="12" height="12"/><rect class="c" x="274" y="34" width="12" height="12"/><rect class="c" x="274" y="50" width="12" height="12"/><rect class="c" x="274" y="66" width="12" height="12"/><rect class="c" x="274" y="82" width="12" height="12"/><rect class="c" x="274" y="98" width="12" height="12"/><rect class="c" x="290" y="2" width="12" height="12"/><rect class="c" x="290" y="18" width="12" height="12"/><rect class="c" x="290" y="34" width="12" height="12"/><rect class="c" x="290" y="50" width="12" height="12"/><rect class="c" x="290" y="66" width="12" height="12"/><rect class="c" x="290" y="82" width="12" height="12"/><rect class="c" x="290" y="98" width="12" height="12"/><rect class="c" x="306" y="2" width="12" height="12"/><rect class="c" x="306" y="18" width="12" height="12"/><rect class="c" x="306" y="34" width="12" height="12"/><rect class="c" x="306" y="50" width="12" height="12"/><rect class="c" x="306" y="66" width="12" height="12"/><rect class="c" x="306" y="82" width="12" height="12"/><rect class="c" x="306" y="98" width="12" height="12"/><rect class="c" x="322" y="2" width="12" height="12"/><rect class="c" x="322" y="18" width="12" height="12"/><rect class="c" x="322" y="34" width="12" height="12"/><rect class="c" x="322" y="50" width="12" height="12"/><rect class="c" x="322" y="66" width="12" height="12"/><rect class="c" x="322" y="82" width="12" height="12"/><rect class="c" x="322" y="98" width="12" height="12"/><rect class="c" x="338" y="2" width="12" height="12"/><rect class="c" x="338" y="18" width="12" height="12"/><rect class="c" x="338" y="34" width="12" height="12"/><rect class="c" x="338" y="50" width="12" height="12"/><rect class="c" x="338" y="66" width="12" height="12"/><rect class="c" x="338" y="82" width="12" height="12"/><rect class="c" x="338" y="98" width="12" height="12"/><rect class="c" x="354" y="2" width="12" height="12"/><rect class="c" x="354" y="18" width="12" height="12"/><rect class="c" x="354" y="34" width="12" height="12"/><rect class="c" x="354" y="50" width="12" height="12"/><rect class="c" x="354" y="66" width="12" height="12"/><rect class="c" x="354" y="82" width="12" height="12"/><rect class="c" x="354" y="98" width="12" height="12"/><rect class="c" x="370" y="2" width="12" height="12"/><rect class="c" x="370" y="18" width="12" height="12"/><rect class="c" x="370" y="34" width="12" height="12"/><rect class="c" x="370" y="50" width="12" height="12"/><rect class="c" x="370" y="66" width="12" height="12"/><rect class="c cn" x="370" y="82" width="12" height="12"/><rect class="c" x="370" y="98" width="12" height="12"/><rect class="c" x="386" y="2" width="12" height="12"/><rect class="c" x="386" y="18" width="12" height="12"/><rect class="c co" x="386" y="34" width="12" height="12"/><rect class="c" x="386" y="50" width="12" height="12"/><rect class="c" x="386" y="66" width="12" height="12"/><rect class="c" x="386" y="82" width="12" height="12"/><rect class="c" x="386" y="98" width="12" height="12"/><rect class="c" x="402" y="2" width="12" height="12"/><rect class="c" x="402" y="18" width="12" height="12"/><rect class="c" x="402" y="34" width="12" height="12"/><rect class="c" x="402" y="50" width="12" height="12"/><rect class="c cp" x="402" y="66" width="12" height="12"/><rect class="c" x="402" y="82" width="12" height="12"/><rect class="c" x="402" y="98" width="12" height="12"/><rect class="c" x="418" y="2" width="12" height="12"/><rect class="c" x="418" y="18" width="12" height="12"/><rect class="c" x="418" y="34" width="12" height="12"/><rect class="c" x="418" y="50" width="12" height="12"/><rect class="c" x="418" y="66" width="12" height="12"/><rect class="c" x="418" y="82" width="12" height="12"/><rect class="c" x="418" y="98" width="12" height="12"/><rect class="c" x="434" y="2" width="12" height="12"/><rect class="c" x="434" y="18" width="12" height="12"/><rect class="c" x="434" y="34" width="12" height="12"/><rect class="c" x="434" y="50" width="12" height="12"/><rect class="c" x="434" y="66" width="12" height="12"/><rect class="c" x="434" y="82" width="12" height="12"/><rect class="c" x="434" y="98" width="12" height="12"/><rect class="c" x="450" y="2" width="12" height="12"/><rect class="c" x="450" y="18" width="12" height="12"/><rect class="c" x="450" y="34" width="12" height="12"/><rect class="c" x="450" y="50" width="12" height="12"/><rect class="c" x="450" y="66" width="12" height="12"/><rect class="c" x="450" y="82" width="12" height="12"/><rect class="c" x="450" y="98" width="12" height="12"/><rect class="c" x="466" y="2" width="12" height="12"/><rect class="c" x="466" y="18" width="12" height="12"/><rect class="c" x="466" y="34" width="12" height="12"/><rect class="c" x="466" y="50" width="12" height="12"/><rect class="c" x="466" y="66" width="12" height="12"/><rect class="c" x="466" y="82" width="12" height="12"/><rect class="c" x="466" y="98" width="12" height="12"/><rect class="c" x="482" y="2" width="12" height="12"/><rect class="c" x="482" y="18" width="12" height="12"/><rect class="c" x="482" y="34" width="12" height="12"/><rect class="c" x="482" y="50" width="12" height="12"/><rect class="c" x="482" y="66" width="12" height="12"/><rect class="c" x="482" y="82" width="12" height="12"/><rect class="c" x="482" y="98" width="12" height="12"/><rect class="c" x="498" y="2" width="12" height="12"/><rect class="c" x="498" y="18" width="12" height="12"/><rect class="c" x="498" y="34" width="12" height="12"/><rect class="c" x="498" y="50" width="12" height="12"/><rect class="c" x="498" y="66" width="12" height="12"/><rect class="c" x="498" y="82" width="12" height="12"/><rect class="c" x="498" y="98" width="12" height="12"/><rect class="c" x="514" y="2" width="12" height="12"/><rect class="c" x="514" y="18" width="12" height="12"/><rect class="c" x="514" y="34" width="12" height="12"/><rect class="c" x="514" y="50" width="12" height="12"/><rect class="c" x="514" y="66" width="12" height="12"/><rect class="c" x="514" y="82" width="12" height="12"/><rect class="c" x="514" y="98" width="12" height="12"/><rect class="c" x="530" y="2" width="12" height="12"/><rect class="c" x="530" y="18" width="12" height="12"/><rect class="c" x="530" y="34" width="12" height="12"/><rect class="c" x="530" y="50" width="12" height="12"/><rect class="c" x="530" y="66" width="12" height="12"/><rect class="c" x="530" y="82" width="12" height="12"/><rect class="c" x="530" y="98" width="12" height="12"/><rect class="c" x="546" y="2" width="12" height="12"/><rect class="c" x="546" y="18" width="12" height="12"/><rect class="c" x="546" y="34" width="12" height="12"/><rect class="c" x="546" y="50" width="12" height="12"/><rect class="c" x="546" y="66" width="12" height="12"/><rect class="c" x="546" y="82" width="12" height="12"/><rect class="c" x="546" y="98" width="12" height="12"/><rect class="c" x="562" y="2" width="12" height="12"/><rect class="c" x="562" y="18" width="12" height="12"/><rect class="c" x="562" y="34" width="12" height="12"/><rect class="c" x="562" y="50" width="12" height="12"/><rect class="c" x="562" y="66" width="12" height="12"/><rect class="c" x="562" y="82" width="12" height="12"/><rect class="c" x="562" y="98" width="12" height="12"/><rect class="c" x="578" y="2" width="12" height="12"/><rect class="c" x="578" y="18" width="12" height="12"/><rect class="c" x="578" y="34" width="12" height="12"/><rect class="c" x="578" y="50" width="12" height="12"/><rect class="c" x="578" y="66" width="12" height="12"/><rect class="c" x="578" y="82" width="12" height="12"/><rect class="c" x="578" y="98" width="12" height="12"/><rect class="c" x="594" y="2" width="12" height="12"/><rect class="c" x="594" y="18" width="12" height="12"/><rect class="c" x="594" y="34" width="12" height="12"/><rect class="c" x="594" y="50" width="12" height="12"/><rect class="c" x="594" y="66" width="12" height="12"/><rect class="c" x="594" y="82" width="12" height="12"/><rect class="c" x="594" y="98" width="12" height="12"/><rect class="c" x="610" y="2" width="12" height="12"/><rect class="c" x="610" y="18" width="12" height="12"/><rect class="c" x="610" y="34" width="12" height="12"/><rect class="c" x="610" y="50" width="12" height="12"/><rect class="c" x="610" y="66" width="12" height="12"/><rect class="c" x="610" y="82" width="12" height="12"/><rect class="c" x="610" y="98" width="12" height="12"/><rect class="c" x="626" y="2" width="12" height="12"/><rect class="c" x="626" y="18" width="12" height="12"/><rect class="c" x="626" y="34" width="12" height="12"/><rect class="c" x="626" y="50" width="12" height="12"/><rect class="c" x="626" y="66" width="12" height="12"/><rect class="c" x="626" y="82" width="12" height="12"/><rect class="c" x="626" y="98" width="12" height="12"/><rect class="c" x="642" y="2" width="12" height="12"/><rect class="c" x="642" y="18" width="12" height="12"/><rect class="c" x="642" y="34" width="12" height="12"/><rect class="c" x="642" y="50" width="12" height="12"/><rect class="c" x="642" y="66" width="12" height="12"/><rect class="c" x="642" y="82" width="12" height="12"/><rect class="c" x="642" y="98" width="12" height="12"/><rect class="c" x="658" y="2" width="12" height="12"/><rect class="c" x="658" y="18" width="12" height="12"/><rect class="c" x="658" y="34" width="12" height="12"/><rect class="c" x="658" y="50" width="12" height="12"/><rect class="c cq" x="658" y="66" width="12" height="12"/><rect class="c" x="658" y="82" width="12" height="12"/><rect class="c" x="658" y="98" width="12" height="12"/><rect class="c" x="674" y="2" width="12" height="12"/><rect class="c cr" x="674" y="18" width="12" height="12"/><rect class="c" x="674" y="34" width="12" height="12"/><rect class="c" x="674" y="50" width="12" height="12"/><rect class="c" x="674" y="66" width="12" height="12"/><rect class="c" x="674" y="82" width="12" height="12"/><rect class="c" x="674" y="98" width="12" height="12"/><rect class="c" x="690" y="2" width="12" height="12"/><rect class="c" x="690" y="18" width="12" height="12"/><rect class="c" x="690" y="34" width="12" height="12"/><rect class="c" x="690" y="50" width="12" height="12"/><rect class="c" x="690" y="66" width="12" height="12"/><rect class="c" x="690" y="82" width="12" height="12"/><rect class="c" x="690" y="98" width="12" height="12"/><rect class="c" x="706" y="2" width="12" height="12"/><rect class="c" x="706" y="18" width="12" height="12"/><rect class="c" x="706" y="34" width="12" height="12"/><rect class="c" x="706" y="50" width="12" height="12"/><rect class="c" x="706" y="66" width="12" height="12"/><rect class="c" x="706" y="82" width="12" height="12"/><rect class="c" x="706" y="98" width="12" height="12"/><rect class="c" x="722" y="2" width="12" height="12"/><rect class="c" x="722" y="18" width="12" height="12"/><rect class="c" x="722" y="34" width="12" height="12"/><rect class="c" x="722" y="50" width="12" height="12"/><rect class="c" x="722" y="66" width="12" height="12"/><rect class="c" x="722" y="82" width="12" height="12"/><rect class="c" x="722" y="98" width="12" height="12"/><rect class="c" x="738" y="2" width="12" height="12"/><rect class="c" x="738" y="18" width="12" height="12"/><rect class="c" x="738" y="34" width="12" height="12"/><rect class="c" x="738" y="50" width="12" height="12"/><rect class="c" x="738" y="66" width="12" height="12"/><rect class="c" x="738" y="82" width="12" height="12"/><rect class="c" x="738" y="98" width="12" height="12"/><rect class="c" x="754" y="2" width="12" height="12"/><rect class="c" x="754" y="18" width="12" height="12"/><rect class="c" x="754" y="34" width="12" height="12"/><rect class="c" x="754" y="50" width="12" height="12"/><rect class="c" x="754" y="66" width="12" height="12"/><rect class="c" x="754" y="82" width="12" height="12"/><rect class="c" x="754" y="98" width="12" height="12"/><rect class="c" x="770" y="2" width="12" height="12"/><rect class="c" x="770" y="18" width="12" height="12"/><rect class="c" x="770" y="34" width="12" height="12"/><rect class="c" x="770" y="50" width="12" height="12"/><rect class="c" x="770" y="66" width="12" height="12"/><rect class="c" x="770" y="82" width="12" height="12"/><rect class="c" x="770" y="98" width="12" height="12"/><rect class="c" x="786" y="2" width="12" height="12"/><rect class="c" x="786" y="18" width="12" height="12"/><rect class="c" x="786" y="34" width="12" height="12"/><rect class="c" x="786" y="50" width="12" height="12"/><rect class="c" x="786" y="66" width="12" height="12"/><rect class="c" x="786" y="82" width="12" height="12"/><rect class="c" x="786" y="98" width="12" height="12"/><rect class="c" x="802" y="2" width="12" height="12"/><rect class="c" x="802" y="18" width="12" height="12"/><rect class="c" x="802" y="34" width="12" height="12"/><rect class="c cs" x="802" y="50" width="12" height="12"/><rect class="c" x="802" y="66" width="12" height="12"/><rect class="c" x="802" y="82" width="12" height="12"/><rect class="c" x="802" y="98" width="12" height="12"/><rect class="c" x="818" y="2" width="12" height="12"/><rect class="c" x="818" y="18" width="12" height="12"/><rect class="c" x="818" y="34" width="12" height="12"/><rect class="c" x="818" y="50" width="12" height="12"/><rect class="c" x="818" y="66" width="12" height="12"/><rect class="c" x="818" y="82" width="12" height="12"/><rect class="c" x="818" y="98" width="12" height="12"/><rect class="c" x="834" y="2" width="12" height="12"/><rect class="c" x="834" y="18" width="12" height="12"/><rect class="u u0" height="12" width="439.2" x="0.0" y="144"/><rect class="u u1" height="12" width="293.0" x="438.6" y="144"/><rect class="u u2" height="12" width="59.1" x="731.0" y="144"/><rect class="u u3" height="12" width="59.1" x="789.5" y="144"/><rect class="s s0" x="0.8" y="0.8" width="14.4" height="14.4" rx="4.5" ry="4.5"/><rect class="s s1" x="1.8" y="1.8" width="12.3" height="12.3" rx="4.1" ry="4.1"/><rect class="s s2" x="2.6" y="2.6" width="10.8" height="10.8" rx="3.6" ry="3.6"/><rect class="s s3" x="3.0" y="3.0" width="9.9" height="9.9" rx="3.3" ry="3.3"/></svg>